<svg width="22" height="22" viewBox="0 0 22 22" fill="none" style="color:white;" xmlns="http://www.w3.org/2000/svg">
<path d="M18.5 12V8.368C18.5 4.895 18.5 3.158 17.475 2.079C16.45 1 14.8 1 11.5 1H8.5C5.2 1 3.55 1 2.525 2.08C1.5 3.157 1.5 4.894 1.5 8.367V13.631C1.5 17.104 1.5 18.841 2.525 19.92C3.55 20.999 5.2 21 8.5 21H10M12.5 19C12.5 19 13.5 19 14.5 21C14.5 21 17.677 16 20.5 15" stroke="black" stroke-width="1.5" stroke-linecap="round" stroke-linejoin="round"/>
<path d="M6 1L6.082 1.493C6.282 2.69 6.382 3.289 6.802 3.645C7.22 4 7.827 4 9.041 4H10.958C12.171 4 12.778 4 13.198 3.645C13.618 3.289 13.718 2.69 13.917 1.493L14 1M6 15H10M6 10H14" stroke="black" stroke-width="1.5" stroke-linecap="round" stroke-linejoin="round"/>
</svg>
