<svg width="22" height="22" viewBox="0 0 22 22" fill="none" xmlns="http://www.w3.org/2000/svg">
<path d="M10.9999 13.7499V16.4999M20.1666 11.1869V12.5812C20.1666 16.1562 20.1666 17.9446 19.0923 19.0556C18.0179 20.1666 16.29 20.1666 12.8333 20.1666H9.16658C5.70984 20.1666 3.981 20.1666 2.90759 19.0556C1.83417 17.9446 1.83325 16.1571 1.83325 12.5812V11.1869C1.83325 9.08867 1.83325 8.04 2.30992 7.171C2.78475 6.30109 3.65467 5.76208 5.39358 4.68225L7.22692 3.54467C9.06483 2.40342 9.98425 1.83325 10.9999 1.83325C12.0156 1.83325 12.9341 2.40342 14.7729 3.54467L16.6063 4.68225C18.3452 5.76208 19.2151 6.30109 19.6908 7.171" stroke="#F3F4F6" stroke-width="1.5" stroke-linecap="round"/>
</svg>
