<svg width="24" height="24" viewBox="0 0 24 24" fill="none" xmlns="http://www.w3.org/2000/svg">
<path d="M9.5 13.4L10.929 15L14.5 11" stroke="#F3F4F6" stroke-width="1.5" stroke-linecap="round" stroke-linejoin="round"/>
<path d="M20.5 7V13C20.5 16.771 20.5 18.657 19.328 19.828C18.156 20.999 16.271 21 12.5 21H11.5M3.5 7V13C3.5 16.771 3.5 18.657 4.672 19.828C5.376 20.533 6.34 20.814 7.816 20.926M12 3H4C3.057 3 2.586 3 2.293 3.293C2 3.586 2 4.057 2 5C2 5.943 2 6.414 2.293 6.707C2.586 7 3.057 7 4 7H20C20.943 7 21.414 7 21.707 6.707C22 6.414 22 5.943 22 5C22 4.057 22 3.586 21.707 3.293C21.414 3 20.943 3 20 3H16" stroke="#F3F4F6" stroke-width="1.5" stroke-linecap="round"/>
</svg>
