<svg width="24" height="24" viewBox="0 0 24 24" fill="none" xmlns="http://www.w3.org/2000/svg">
<path d="M19.436 7.75352C19.2605 7.26352 18.6615 5.97002 16.802 4.14702C14.8315 2.21502 13.467 1.67102 13.042 1.53802C12.1949 1.51206 11.3475 1.49939 10.5 1.50002C7.368 1.50002 5.217 1.66002 3.876 1.81352C2.7755 1.93952 1.951 2.76502 1.83 3.86602C1.67 5.31102 1.5 7.73652 1.5 11.5C1.5 15.2635 1.6705 17.689 1.83 19.134C1.951 20.235 2.7755 21.0605 3.876 21.1865C4.825 21.295 6.1795 21.4065 8 21.463" stroke="white" stroke-width="1.5" stroke-linecap="round" stroke-linejoin="round"/>
<path d="M19.443 7.97894C18.3995 8.13444 16.5225 8.01494 15.098 7.88344C14.555 7.83496 14.0462 7.5978 13.6599 7.21316C13.2736 6.82852 13.0343 6.3207 12.9835 5.77794C12.8495 4.37694 12.7305 2.54494 12.8935 1.53394M20.5 17.1289C20.5 17.1289 20.2635 16.0749 18.844 14.6559C17.425 13.2364 16.371 12.9999 16.371 12.9999M5 6.49994L7 8.49994L9.5 4.99994M5 11.9999L7 13.9999L9.5 10.4999" stroke="white" stroke-width="1.5" stroke-linecap="round" stroke-linejoin="round"/>
<path d="M21.8325 15.7961C22.5595 15.0696 22.8375 14.0076 22.2295 13.1786C21.9605 12.8159 21.6647 12.4739 21.3445 12.1556C20.9745 11.7856 20.6295 11.4966 20.321 11.2706C19.4925 10.6626 18.4305 10.9406 17.7035 11.6671L11.5335 17.8371C11.262 18.1091 11.076 18.4536 11.044 18.8371C11.0005 19.3576 10.9685 20.2421 11.0525 21.5511C11.0674 21.7839 11.1667 22.0034 11.3317 22.1684C11.4967 22.3334 11.7161 22.4326 11.949 22.4476C13.2575 22.5316 14.1425 22.4996 14.663 22.4556C15.046 22.4236 15.391 22.2381 15.663 21.9656L21.8325 15.7961Z" stroke="white" stroke-width="1.5" stroke-linecap="round" stroke-linejoin="round"/>
</svg>
