<svg width="27" height="28" viewBox="0 0 27 28" fill="none" xmlns="http://www.w3.org/2000/svg">
<path d="M11.6154 5.15574L10.9497 7.68205M14.6318 26.6269C13.4078 25.1364 11.4739 21.5768 8.94758 21.5768C7.3181 21.7107 6.46674 23.296 5.59768 24.5187M5.59768 24.5187C5.09747 24.0538 4.90926 23.3616 4.53158 21.976L2.32863 13.8804C1.44189 10.6227 0.998525 8.99447 1.75137 7.71111C2.50421 6.42774 4.15768 5.98942 7.46716 5.11784L10.2107 4.39405M5.59768 24.5187C6.09916 24.9823 6.81284 25.1275 8.23895 25.4155L13.4709 26.469C14.5863 26.6938 14.5964 26.6938 15.6966 26.4033L19.2714 25.461C22.5796 24.5882 24.233 24.1511 24.9859 22.8677C25.7387 21.5856 25.2954 19.9562 24.4086 16.6985L22.2145 8.63574C21.3278 5.37679 20.8844 3.74858 19.5808 3.00837C18.4465 2.36289 17.0444 2.61047 14.5143 3.26226M13.7476 2.33005C13.9992 2.77249 14.0674 3.29593 13.9375 3.78806C13.8076 4.28019 13.49 4.70181 13.0528 4.96247C12.8373 5.08859 12.5988 5.17045 12.3513 5.20325C12.1038 5.23605 11.8522 5.21914 11.6113 5.1535C11.3704 5.08786 11.145 4.97482 10.9483 4.82099C10.7516 4.66716 10.5876 4.47564 10.4659 4.25763C10.2143 3.81519 10.1461 3.29176 10.276 2.79963C10.4059 2.3075 10.7235 1.88587 11.1606 1.62521C11.3761 1.49909 11.6146 1.41723 11.8622 1.38443C12.1097 1.35163 12.3613 1.36854 12.6022 1.43418C12.8431 1.49982 13.0685 1.61286 13.2652 1.76669C13.4618 1.92052 13.6258 2.11205 13.7476 2.33005Z" stroke="#953B3B" stroke-width="1.5" stroke-linecap="round" stroke-linejoin="round"/>
</svg>
